<svg xmlns="http://www.w3.org/2000/svg" xmlns:xlink="http://www.w3.org/1999/xlink" width="12" height="12" style=""><rect id="backgroundrect" width="100%" height="100%" x="0" y="0" fill="none" stroke="none"/>
  <defs>
    <clipPath id="clip-path">
      <rect id="Прямоугольник_2974" data-name="Прямоугольник 2974" width="12" height="12" fill="#0a162f"/>
    </clipPath>
  </defs>
  
<g class="currentLayer" style=""><title>Layer 1</title><g id="Группа_масок_304" data-name="Группа масок 304" clip-path="url(#clip-path)" class="" fill="#ffffff" fill-opacity="1">
    <g id="next" fill="#ffffff" fill-opacity="1">
      <path id="Контур_2365" data-name="Контур 2365" d="M2.424444692490932,5.307000022351742 L7.500641004441615,0.29300002235174194 a0.9774356498718262,0.9670000000000006 0 0 1 1.4009574050903322,0 L9.492911599992151,0.8700000223517421 a0.9531766471862796,0.9430000000000006 0 0 1 0.28807565689086945,0.693000000000001 a0.9966406936645514,0.986 0 0 1 -0.28807565689086945,0.7000000000000006 L5.709517972825404,6.000000022351742 L9.493922391770719,9.743000022351742 a0.9531766471862796,0.9430000000000006 0 0 1 0.28807565689086945,0.693000000000001 a0.9966406936645514,0.986 0 0 1 -0.28807565689086945,0.7000000000000006 l-0.5913131904602054,0.5780000000000006 a0.9966406936645514,0.986 0 0 1 -1.4009574050903322,0 L2.424444692490932,6.700000022351742 A0.9966406936645514,0.986 0 0 1 2.1363690356000626,6.000000022351742 A0.9531766471862796,0.9430000000000006 0 0 1 2.424444692490932,5.307000022351742 z" fill="#ffffff" fill-opacity="1"/>
    </g>
  </g></g></svg>