<svg xmlns="http://www.w3.org/2000/svg" xmlns:xlink="http://www.w3.org/1999/xlink" width="12" height="12"><rect id="backgroundrect" width="100%" height="100%" x="0" y="0" fill="none" stroke="none"/>
  <defs>
    <clipPath id="clip-path">
      <rect id="Прямоугольник_2974" data-name="Прямоугольник 2974" width="12" height="12" fill="#0a162f"/>
    </clipPath>
  </defs>
  
<g class="currentLayer" style=""><title>Layer 1</title><g id="Группа_масок_304" data-name="Группа масок 304" clip-path="url(#clip-path)" class="selected" fill="#ffffff" fill-opacity="1">
    <g id="next" fill="#ffffff" fill-opacity="1">
      <path id="Контур_2365" data-name="Контур 2365" d="M9.577632614195347,5.307 L4.5566326141953475,0.29300000000000015 A0.915,0.915 0 0 0 3.8626326141953466,0 a0.916,0.916 0 0 0 -0.6930000000000006,0.29300000000000015 L2.584632614195347,0.8700000000000003 a0.9430000000000003,0.9430000000000003 0 0 0 -0.28500000000000014,0.6930000000000006 a0.986,0.986 0 0 0 0.28500000000000014,0.7000000000000003 L6.3276326141953465,6 L2.584632614195347,9.743 a0.9430000000000003,0.9430000000000003 0 0 0 -0.28500000000000014,0.6930000000000006 a0.986,0.986 0 0 0 0.28500000000000014,0.7000000000000003 l0.5850000000000003,0.5780000000000003 A0.9440000000000003,0.9440000000000003 0 0 0 3.8626326141953466,12 a0.9430000000000003,0.9430000000000003 0 0 0 0.6930000000000006,-0.28500000000000014 L9.577632614195347,6.7 A0.986,0.986 0 0 0 9.862632614195347,6 A0.9430000000000003,0.9430000000000003 0 0 0 9.577632614195347,5.307 z" fill="#ffffff" fill-opacity="1"/>
    </g>
  </g></g></svg>