<svg xmlns="http://www.w3.org/2000/svg" xmlns:xlink="http://www.w3.org/1999/xlink" width="14" height="14" viewBox="0 0 14 14">
  <defs>
    <clipPath id="clip-path">
      <rect id="Прямоугольник_2988" data-name="Прямоугольник 2988" width="14" height="14" transform="translate(364 266)" fill="#0a162f"/>
    </clipPath>
  </defs>
  <g id="Группа_масок_306" data-name="Группа масок 306" transform="translate(280 -364) rotate(90)" opacity="0.6" clip-path="url(#clip-path)">
    <g id="next" transform="translate(366.588 266)">
      <path id="Контур_2367" data-name="Контур 2367" d="M9.97,6.191,4.112.341A1.068,1.068,0,0,0,3.3,0a1.068,1.068,0,0,0-.809.341l-.683.674a1.1,1.1,0,0,0-.333.809,1.15,1.15,0,0,0,.333.818L6.178,7,1.811,11.367a1.1,1.1,0,0,0-.332.809,1.15,1.15,0,0,0,.332.818l.683.674A1.1,1.1,0,0,0,3.3,14a1.1,1.1,0,0,0,.809-.332L9.97,7.818A1.151,1.151,0,0,0,10.3,7,1.1,1.1,0,0,0,9.97,6.191Z" transform="translate(-1.479 0)" fill="#0a162f"/>
    </g>
  </g>
</svg>
