<svg xmlns="http://www.w3.org/2000/svg" xmlns:xlink="http://www.w3.org/1999/xlink" width="14" height="14" viewBox="0 0 14 14">
  <defs>
    <clipPath id="clip-path">
      <rect id="Прямоугольник_2964" data-name="Прямоугольник 2964" width="14" height="14" transform="translate(484 14)" fill="#fff"/>
    </clipPath>
  </defs>
  <g id="Группа_масок_311" data-name="Группа масок 311" transform="translate(-484 -14)" clip-path="url(#clip-path)">
    <g id="bag_2_" data-name="bag (2)" transform="translate(484 14)">
      <g id="Сгруппировать_3377" data-name="Сгруппировать 3377">
        <g id="Сгруппировать_3376" data-name="Сгруппировать 3376">
          <path id="Контур_2372" data-name="Контур 2372" d="M12.833,2.917H9.917V2.333A1.168,1.168,0,0,0,8.75,1.167H5.25A1.168,1.168,0,0,0,4.083,2.333v.583H1.167A1.168,1.168,0,0,0,0,4.083v1.75A1.168,1.168,0,0,0,1.167,7H5.833V6.708a.292.292,0,0,1,.292-.292h1.75a.292.292,0,0,1,.292.292V7h4.667A1.168,1.168,0,0,0,14,5.833V4.083A1.168,1.168,0,0,0,12.833,2.917Zm-4.083,0H5.25V2.333h3.5Z" fill="#fff"/>
          <path id="Контур_2373" data-name="Контур 2373" d="M13.838,7.315a.292.292,0,0,0-.306.029,1.152,1.152,0,0,1-.7.24H8.167v.875a.292.292,0,0,1-.292.292H6.125a.292.292,0,0,1-.292-.292V7.583H1.167a1.152,1.152,0,0,1-.7-.24A.292.292,0,0,0,0,7.576v4.091a1.168,1.168,0,0,0,1.167,1.167H12.833A1.168,1.168,0,0,0,14,11.667V7.576A.292.292,0,0,0,13.838,7.315Z" fill="#fff"/>
        </g>
      </g>
    </g>
  </g>
</svg>
