<svg xmlns="http://www.w3.org/2000/svg" xmlns:xlink="http://www.w3.org/1999/xlink" width="14" height="14" viewBox="0 0 14 14">
  <defs>
    <clipPath id="clip-path">
      <rect id="Прямоугольник_2998" data-name="Прямоугольник 2998" width="14" height="14" transform="translate(848 570)" fill="#fb5f17"/>
    </clipPath>
  </defs>
  <g id="Группа_масок_319" data-name="Группа масок 319" transform="translate(-848 -570)" clip-path="url(#clip-path)">
    <g id="packaging" transform="translate(848 570)">
      <path id="Контур_2445" data-name="Контур 2445" d="M13.563,14H11.229a.438.438,0,0,1-.437-.437v-.729H9.042v.729A.438.438,0,0,1,8.6,14H5.4a.438.438,0,0,1-.437-.437v-.729H3.208v.729A.438.438,0,0,1,2.771,14H.438A.438.438,0,0,1,0,13.563v-1.9H14v1.9A.438.438,0,0,1,13.563,14Z" fill="#fb5f17"/>
      <path id="Контур_2446" data-name="Контур 2446" d="M9.333,0H7.583V1.167a.583.583,0,1,1-1.167,0V0H4.667a.584.584,0,0,0-.583.583v3.5a.584.584,0,0,0,.583.583H9.333a.584.584,0,0,0,.583-.583V.583A.584.584,0,0,0,9.333,0Z" fill="#fb5f17"/>
      <path id="Контур_2447" data-name="Контур 2447" d="M5.833,5.833H4.083V7A.583.583,0,0,1,2.917,7V5.833H1.167a.584.584,0,0,0-.583.583v3.5a.584.584,0,0,0,.583.583H5.833a.584.584,0,0,0,.583-.583v-3.5A.584.584,0,0,0,5.833,5.833Z" fill="#fb5f17"/>
      <path id="Контур_2448" data-name="Контур 2448" d="M12.833,5.833h-1.75V7A.583.583,0,0,1,9.917,7V5.833H8.167a.584.584,0,0,0-.583.583v3.5a.584.584,0,0,0,.583.583h4.667a.584.584,0,0,0,.583-.583v-3.5A.584.584,0,0,0,12.833,5.833Z" fill="#fb5f17"/>
    </g>
  </g>
</svg>
