<svg xmlns="http://www.w3.org/2000/svg" xmlns:xlink="http://www.w3.org/1999/xlink" width="40" height="40" viewBox="0 0 40 40">
  <defs>
    <clipPath id="clip-path">
      <rect id="Прямоугольник_3036" data-name="Прямоугольник 3036" width="40" height="40" transform="translate(1077 1049)" fill="#0a162f" stroke="#707070" stroke-width="1"/>
    </clipPath>
  </defs>
  <g id="Группа_масок_321" data-name="Группа масок 321" transform="translate(-1077 -1049)" clip-path="url(#clip-path)">
    <path id="technical-support" d="M37.045,31.631,26.583,28.2V24.592a8.754,8.754,0,0,0,1.429-3.811H29.9a2.994,2.994,0,0,0,2.991-2.991v-3.2A2.973,2.973,0,0,0,32.37,12.9V12.37a12.37,12.37,0,0,0-24.74,0V12.9a2.974,2.974,0,0,0-.521,1.684v3.2A2.994,2.994,0,0,0,10.1,20.781h1.888a8.752,8.752,0,0,0,1.46,3.857v3.553L2.954,31.631A4.283,4.283,0,0,0,0,35.709V40H40V35.709a4.283,4.283,0,0,0-2.955-4.078Zm-21.253-4.7a7.71,7.71,0,0,0,8.447-.021v1.617c-.89.767-2.685,2.034-4.239,2.034s-3.329-1.265-4.208-2.03Zm9.947-13.241a3.633,3.633,0,0,1-2.993-3.571H20.4a3.632,3.632,0,0,1-3.628,3.628H14.261v-1.13a5.739,5.739,0,0,1,11.479,0ZM14.261,16.169v-.082h2.514a5.967,5.967,0,0,0,4.8-2.423,5.973,5.973,0,0,0,4.164,2.389v3.595A6.642,6.642,0,0,1,25.6,20.99H21.345v2.344h3.262A5.612,5.612,0,0,1,20,25.833a5.981,5.981,0,0,1-5.739-6.185V16.169Zm16.286,1.621a.648.648,0,0,1-.647.647H28.083v-4.5H29.9a.648.648,0,0,1,.647.647ZM20,2.344A10.039,10.039,0,0,1,30,11.6l-.1,0H28.019a8.084,8.084,0,0,0-16.038,0H10.1l-.1,0A10.04,10.04,0,0,1,20,2.344ZM9.453,17.791v-3.2a.648.648,0,0,1,.647-.647h1.817v4.5H10.1a.648.648,0,0,1-.647-.647Zm28.2,19.866H31.931V35.234H29.587v2.422H10.413V35.234H8.069v2.422H2.344V35.709a1.943,1.943,0,0,1,1.341-1.851l10.654-3.492C15.35,31.228,17.618,32.9,20,32.9s4.66-1.668,5.68-2.53l10.635,3.486a1.943,1.943,0,0,1,1.341,1.85Z" transform="translate(1077 1049)" fill="#0a162f"/>
  </g>
</svg>
