<svg xmlns="http://www.w3.org/2000/svg" width="9.779" height="9.778" viewBox="0 0 9.779 9.778">
  <path id="Объединение_120" data-name="Объединение 120" d="M-6707.515,5075.9l-3.182-3.182-3.182,3.182a1,1,0,0,1-1.414,0,1,1,0,0,1,0-1.414l3.182-3.182-3.182-3.182a1,1,0,0,1,0-1.414,1,1,0,0,1,1.414,0l3.182,3.182,3.182-3.182a1,1,0,0,1,1.414,0,1,1,0,0,1,0,1.414l-3.182,3.182,3.182,3.182a1,1,0,0,1,0,1.414,1,1,0,0,1-.707.293A1,1,0,0,1-6707.515,5075.9Z" transform="translate(6715.586 -5066.414)" fill="#0a162f"/>
</svg>
