<svg xmlns="http://www.w3.org/2000/svg" xmlns:xlink="http://www.w3.org/1999/xlink" width="32" height="32" viewBox="0 0 32 32">
  <defs>
    <clipPath id="clip-path">
      <rect id="Прямоугольник_2947" data-name="Прямоугольник 2947" width="32" height="32" transform="translate(144 605)" fill="#fb5f17"/>
    </clipPath>
  </defs>
  <g id="Группа_масок_294" data-name="Группа масок 294" transform="translate(-144 -605)" clip-path="url(#clip-path)">
    <g id="sports-and-competition" transform="translate(144 605)">
      <path id="Контур_2342" data-name="Контур 2342" d="M19.26,6.5l-1.668-.251-.754-1.508a.937.937,0,0,0-1.677,0l-.754,1.508L12.74,6.5a.938.938,0,0,0-.518,1.6l1.2,1.183-.276,1.664a.937.937,0,0,0,1.357.986l1.5-.777,1.5.777a.937.937,0,0,0,1.357-.986l-.276-1.664,1.2-1.183A.938.938,0,0,0,19.26,6.5ZM16.915,8.281A1.144,1.144,0,0,0,16.7,9.4l-.265-.137a.938.938,0,0,0-.864,0L15.3,9.4a1.454,1.454,0,0,0,.016-.738,1.456,1.456,0,0,0-.446-.587l.3-.045c.617-.1.744-.657.827-.774l.133.267a1.144,1.144,0,0,0,.994.552Z" fill="#fb5f17"/>
      <path id="Контур_2343" data-name="Контур 2343" d="M31.063,1.875H26.3q.011-.465.012-.937A.938.938,0,0,0,25.375,0H6.625a.938.938,0,0,0-.937.938q0,.473.012.938H.938A.938.938,0,0,0,0,2.813V5.187a9.853,9.853,0,0,0,9.379,9.8,9.354,9.354,0,0,0,3.792,3.168,13.722,13.722,0,0,1-1.708,5.9,12.266,12.266,0,0,1-1.751,2.466h0a.945.945,0,0,0-.275.663v2.938H8.5A.938.938,0,0,0,8.5,32h15a.938.938,0,0,0,0-1.875h-.937V27.188a.947.947,0,0,0-.275-.663h0a13.744,13.744,0,0,1-3.46-8.369,9.353,9.353,0,0,0,3.793-3.168A9.853,9.853,0,0,0,32,5.187V2.813a.938.938,0,0,0-.937-.937ZM1.875,5.187V3.75H5.794A24.854,24.854,0,0,0,8.13,12.934,7.966,7.966,0,0,1,1.875,5.187Zm9.438,24.938v-2h9.375v2ZM17.589,16.62a.938.938,0,0,0-.652.893,15.554,15.554,0,0,0,2.745,8.737H12.318a15.554,15.554,0,0,0,2.745-8.737.938.938,0,0,0-.652-.893c-2.223-.712-3.787-2.778-4.791-4.905A24.838,24.838,0,0,1,7.575,1.875H24.426a24.837,24.837,0,0,1-2.045,9.839c-.995,2.106-2.555,4.189-4.791,4.905ZM30.125,5.187a7.966,7.966,0,0,1-6.255,7.747A24.852,24.852,0,0,0,26.206,3.75h3.919Z" fill="#fb5f17"/>
    </g>
  </g>
</svg>
