<svg xmlns="http://www.w3.org/2000/svg" xmlns:xlink="http://www.w3.org/1999/xlink" width="14" height="14" viewBox="0 0 14 14">
  <defs>
    <clipPath id="clip-path">
      <rect id="Прямоугольник_2961" data-name="Прямоугольник 2961" width="14" height="14" transform="translate(110 14)" fill="#fff"/>
    </clipPath>
  </defs>
  <g id="Группа_масок_314" data-name="Группа масок 314" transform="translate(-110 -14)" clip-path="url(#clip-path)">
    <g id="app" transform="translate(110 14)">
      <path id="Контур_2376" data-name="Контур 2376" d="M1.23,13.152H6.563V8.23H0v3.691A1.232,1.232,0,0,0,1.23,13.152Zm.82-4.1H5.332a.41.41,0,0,1,0,.82H2.051a.41.41,0,0,1,0-.82Zm0,1.641H4.512a.41.41,0,0,1,0,.82H2.051a.41.41,0,0,1,0-.82Z" fill="#fff"/>
      <path id="Контур_2377" data-name="Контур 2377" d="M7.383,7.82v5.332H12.77A1.232,1.232,0,0,0,14,11.922V8.23H8.668a.41.41,0,0,1,0-.82H14V4.129H0V7.41H6.973A.41.41,0,0,1,7.383,7.82Z" fill="#fff"/>
      <path id="Контур_2378" data-name="Контур 2378" d="M14,2.078A1.232,1.232,0,0,0,12.77.848H1.23A1.232,1.232,0,0,0,0,2.078v1.23H14Zm-11.949.41a.41.41,0,1,1,.41-.41A.41.41,0,0,1,2.051,2.488Zm1.641,0a.41.41,0,1,1,.41-.41A.41.41,0,0,1,3.691,2.488Z" fill="#fff"/>
    </g>
  </g>
</svg>
