<svg xmlns="http://www.w3.org/2000/svg" width="14.276" height="9.072" viewBox="0 0 14.276 9.072">
  <g id="Сгруппировать_2099" data-name="Сгруппировать 2099" transform="translate(-3.827 -6.95)">
    <path id="Контур_565" data-name="Контур 565" d="M3.83,11.492a4.559,4.559,0,0,1,7.558-3.411c-.37.407-.747.81-1.15,1.187a3.185,3.185,0,0,0-2.681-.524,2.865,2.865,0,1,0,1.929,5.39,2.506,2.506,0,0,0,1.473-1.717c-.866-.017-1.732-.006-2.6-.03,0-.515,0-1.029,0-1.544,1.444,0,2.891-.006,4.337.006a5.125,5.125,0,0,1-.918,3.627,4.473,4.473,0,0,1-4.89,1.3A4.533,4.533,0,0,1,3.83,11.492Z" fill="#fff"/>
    <path id="Контур_566" data-name="Контур 566" d="M15.511,9.543H16.8c0,.431.006.864.009,1.295.431,0,.864.006,1.295.009v1.291l-1.295.006c0,.433-.006.864-.009,1.3-.431,0-.862,0-1.291,0,0-.433,0-.864-.009-1.295-.431,0-.864-.006-1.295-.009V10.846q.646,0,1.295-.009C15.5,10.407,15.506,9.974,15.511,9.543Z" fill="#fff"/>
  </g>
</svg>
