<svg xmlns="http://www.w3.org/2000/svg" xmlns:xlink="http://www.w3.org/1999/xlink" width="32" height="32" viewBox="0 0 32 32">
  <defs>
    <clipPath id="clip-path">
      <rect id="Прямоугольник_2947" data-name="Прямоугольник 2947" width="32" height="32" transform="translate(144 605)" fill="#fb5f17"/>
    </clipPath>
  </defs>
  <g id="Группа_масок_295" data-name="Группа масок 295" transform="translate(-144 -605)" clip-path="url(#clip-path)">
    <g id="healthcare-and-medical" transform="translate(144 605)">
      <path id="Контур_2344" data-name="Контур 2344" d="M30.056,17.161a2.825,2.825,0,0,0-3.191.972L23.373,22.7c0-.025,0-.05,0-.075A3.129,3.129,0,0,0,20.25,19.5h-6.2A6.372,6.372,0,0,0,7,18.7v-.134a.938.938,0,0,0-.937-.937H.937A.938.938,0,0,0,0,18.563v12.5A.938.938,0,0,0,.937,32H6.062A.938.938,0,0,0,7,31.063v-.937H22.366a6.536,6.536,0,0,0,5.52-3.014l3.659-5.691A2.856,2.856,0,0,0,32,19.872a2.825,2.825,0,0,0-1.944-2.711ZM5.125,30.125H1.875V19.5h3.25Zm24.843-9.719L26.309,26.1a4.668,4.668,0,0,1-3.943,2.153H7V20.92l.314-.224a4.494,4.494,0,0,1,5.724.417.937.937,0,0,0,.65.262H20.25a1.25,1.25,0,0,1,0,2.5H13.562a.938.938,0,1,0,0,1.875h7.522a4.715,4.715,0,0,0,3.723-1.84l3.546-4.637a.987.987,0,0,1,1.771.6.984.984,0,0,1-.157.534Z" fill="#fb5f17"/>
      <path id="Контур_2345" data-name="Контур 2345" d="M16.378,11.232a3.026,3.026,0,0,0,1.516.568v.388a.625.625,0,0,0,1.25,0V11.74A2.542,2.542,0,0,0,21,9.715a2.237,2.237,0,0,0-1.521-2.531c-.109-.038-.22-.078-.331-.12V5.045a.859.859,0,0,1,.3.181.625.625,0,0,0,.939-.825,2.17,2.17,0,0,0-1.243-.642v-.32a.625.625,0,0,0-1.25,0v.389l-.117.033a2.105,2.105,0,0,0-1.444,1.65,1.87,1.87,0,0,0,.618,1.842,4.613,4.613,0,0,0,.942.551v2.639a1.893,1.893,0,0,1-.832-.356.625.625,0,1,0-.684,1.046ZM19.144,8.4a.967.967,0,0,1,.618,1.111,1.292,1.292,0,0,1-.618.9ZM17.723,6.368a.647.647,0,0,1-.161-.627.931.931,0,0,1,.332-.56V6.489c-.062-.039-.119-.08-.171-.12Z" fill="#fb5f17"/>
      <path id="Контур_2346" data-name="Контур 2346" d="M18.563,15.625A7.813,7.813,0,1,0,10.75,7.813,7.821,7.821,0,0,0,18.563,15.625Zm0-13.75a5.938,5.938,0,1,1-5.937,5.938A5.944,5.944,0,0,1,18.563,1.875Z" fill="#fb5f17"/>
    </g>
  </g>
</svg>
