<svg xmlns="http://www.w3.org/2000/svg" xmlns:xlink="http://www.w3.org/1999/xlink" width="14" height="14" viewBox="0 0 14 14">
  <defs>
    <clipPath id="clip-path">
      <rect id="Прямоугольник_2958" data-name="Прямоугольник 2958" width="14" height="14" transform="translate(756 1924)" fill="#0a162f"/>
    </clipPath>
  </defs>
  <g id="Группа_масок_303" data-name="Группа масок 303" transform="translate(-756 -1924)" opacity="0.6" clip-path="url(#clip-path)">
    <path id="heart" d="M12.889,1.219A3.765,3.765,0,0,0,10.089,0a3.522,3.522,0,0,0-2.2.759A4.5,4.5,0,0,0,7,1.688,4.5,4.5,0,0,0,6.111.759,3.521,3.521,0,0,0,3.911,0a3.765,3.765,0,0,0-2.8,1.219A4.376,4.376,0,0,0,0,4.207,5.211,5.211,0,0,0,1.389,7.618a29.609,29.609,0,0,0,3.476,3.262c.482.41,1.028.876,1.594,1.371a.822.822,0,0,0,1.082,0c.567-.5,1.113-.961,1.595-1.372a29.592,29.592,0,0,0,3.476-3.262A5.21,5.21,0,0,0,14,4.207a4.376,4.376,0,0,0-1.111-2.988Zm0,0" transform="translate(756 1924.772)" fill="#0a162f"/>
  </g>
</svg>
