<svg xmlns="http://www.w3.org/2000/svg" xmlns:xlink="http://www.w3.org/1999/xlink" width="32" height="32" viewBox="0 0 32 32">
  <defs>
    <clipPath id="clip-path">
      <rect id="Прямоугольник_2947" data-name="Прямоугольник 2947" width="32" height="32" transform="translate(144 605)" fill="#fff" stroke="#707070" stroke-width="1"/>
    </clipPath>
  </defs>
  <g id="Группа_масок_293" data-name="Группа масок 293" transform="translate(-144 -605)" clip-path="url(#clip-path)">
    <g id="patent" transform="translate(144 605)">
      <path id="Контур_2336" data-name="Контур 2336" d="M8.106,22.625a2.813,2.813,0,1,0-2.813-2.812A2.816,2.816,0,0,0,8.106,22.625Zm0-3.75a.938.938,0,1,1-.937.938A.939.939,0,0,1,8.106,18.875Z" fill="#fff"/>
      <path id="Контур_2337" data-name="Контур 2337" d="M21.231,5.688H11.856a.938.938,0,0,0,0,1.875h9.375a.938.938,0,0,0,0-1.875Z" fill="#fff"/>
      <path id="Контур_2338" data-name="Контур 2338" d="M21.231,9.5H11.856a.938.938,0,0,0,0,1.875h9.375a.938.938,0,0,0,0-1.875Z" fill="#fff"/>
      <path id="Контур_2339" data-name="Контур 2339" d="M21.231,13.25H15.606a.938.938,0,0,0,0,1.875h5.625a.938.938,0,0,0,0-1.875Z" fill="#fff"/>
      <path id="Контур_2340" data-name="Контур 2340" d="M21.231,18.875h-3.75a.938.938,0,0,0,0,1.875h3.75a.938.938,0,0,0,0-1.875Z" fill="#fff"/>
      <path id="Контур_2341" data-name="Контур 2341" d="M27.794,0H10.919a3.754,3.754,0,0,0-3.75,3.75v9.567A6.559,6.559,0,0,0,3.451,24.434L.77,26.825a.938.938,0,0,0-.095,1.3l2.963,3.538a.938.938,0,0,0,1.5-.082l2.97-4.455,2.97,4.455a.938.938,0,0,0,1.5.082l2.963-3.538a.938.938,0,0,0-.095-1.3l-.5-.45H24.981a.938.938,0,0,0,.938-.937V13.25h4.688a.938.938,0,0,0,.938-.937V3.75A3.754,3.754,0,0,0,27.794,0ZM8.106,15.125a4.688,4.688,0,1,1-4.688,4.688A4.693,4.693,0,0,1,8.106,15.125ZM4.271,29.5,2.7,27.62l2.285-2.038a6.522,6.522,0,0,0,1.508.591Zm7.671,0L9.724,26.173a6.515,6.515,0,0,0,1.508-.591l2.285,2.038Zm12.1-5H12.835l-.074-.066A6.559,6.559,0,0,0,9.044,13.317V3.75a1.877,1.877,0,0,1,1.875-1.875h13.63a3.726,3.726,0,0,0-.5,1.875Zm5.625-13.125h-3.75V3.75a1.875,1.875,0,1,1,3.75,0Z" fill="#fff"/>
    </g>
  </g>
</svg>
