<svg xmlns="http://www.w3.org/2000/svg" xmlns:xlink="http://www.w3.org/1999/xlink" width="14" height="14" viewBox="0 0 14 14">
  <defs>
    <clipPath id="clip-path">
      <rect id="Прямоугольник_2962" data-name="Прямоугольник 2962" width="14" height="14" transform="translate(268 14)" fill="#fff"/>
    </clipPath>
  </defs>
  <g id="Группа_масок_313" data-name="Группа масок 313" transform="translate(-268 -14)" clip-path="url(#clip-path)">
    <g id="phone_3_" data-name="phone (3)" transform="translate(268 14)">
      <path id="Контур_2375" data-name="Контур 2375" d="M10.784.416A1.345,1.345,0,0,0,9.8,0H4.2a1.345,1.345,0,0,0-.984.416A1.345,1.345,0,0,0,2.8,1.4V12.6a1.345,1.345,0,0,0,.416.984A1.345,1.345,0,0,0,4.2,14H9.8a1.42,1.42,0,0,0,1.4-1.4V1.4A1.345,1.345,0,0,0,10.784.416ZM6.125,1.4h1.75a.155.155,0,0,1,.175.175.155.155,0,0,1-.175.175H6.125a.155.155,0,0,1-.175-.175A.155.155,0,0,1,6.125,1.4ZM7.618,13.218a.872.872,0,1,1,.257-.618A.843.843,0,0,1,7.618,13.218ZM10.15,10.85a.355.355,0,0,1-.35.35H4.2a.354.354,0,0,1-.35-.35V3.15A.355.355,0,0,1,4.2,2.8H9.8a.355.355,0,0,1,.35.35v7.7h0Z" fill="#fff"/>
      <path id="Контур_2379" data-name="Контур 2379" d="M.287,0H5.455a.287.287,0,0,1,.287.287V7.369a.287.287,0,0,1-.287.287H.287A.287.287,0,0,1,0,7.369V.287A.287.287,0,0,1,.287,0Z" transform="translate(4.129 3.172)" fill="#fff"/>
    </g>
  </g>
</svg>
