<svg xmlns="http://www.w3.org/2000/svg" xmlns:xlink="http://www.w3.org/1999/xlink" width="14" height="14" viewBox="0 0 14 14">
  <defs>
    <clipPath id="clip-path">
      <rect id="Прямоугольник_2963" data-name="Прямоугольник 2963" width="14" height="14" transform="translate(377 14)" fill="#fff"/>
    </clipPath>
  </defs>
  <g id="Группа_масок_312" data-name="Группа масок 312" transform="translate(-377 -14)" clip-path="url(#clip-path)">
    <g id="truck" transform="translate(377 14)">
      <path id="Контур_2374" data-name="Контур 2374" d="M13.846,1.45a.5.5,0,0,0-.365-.154h-8.3a.526.526,0,0,0-.518.519V3.37H3.37a1.25,1.25,0,0,0-.474.105,1.239,1.239,0,0,0-.409.259l-1.6,1.6A1.1,1.1,0,0,0,.7,5.582a1.475,1.475,0,0,0-.113.247,1.344,1.344,0,0,0-.053.3q-.016.19-.02.28t0,.308q0,.219,0,.284V9.593a.5.5,0,0,0-.365.154A.5.5,0,0,0,0,10.111a.652.652,0,0,0,.032.215.307.307,0,0,0,.109.15q.077.057.134.093a.447.447,0,0,0,.19.049l.182.016q.049,0,.207,0l.182,0h.518A2,2,0,0,0,2.163,12.1,2,2,0,0,0,3.63,12.7,2,2,0,0,0,5.1,12.1,2,2,0,0,0,5.7,10.63H8.815a2.074,2.074,0,0,0,3.54,1.466,2,2,0,0,0,.608-1.466l.182,0q.158,0,.207,0l.182-.016a.446.446,0,0,0,.19-.049q.057-.036.134-.093a.306.306,0,0,0,.109-.15A.646.646,0,0,0,14,10.111v-8.3A.5.5,0,0,0,13.846,1.45ZM4.359,11.359a1.017,1.017,0,0,1-1.458,0A1.037,1.037,0,0,1,3.63,9.593a1.031,1.031,0,0,1,.729,1.766Zm.308-4.877H1.555V6.239a.243.243,0,0,1,.073-.178l1.58-1.58a.242.242,0,0,1,.178-.073h1.28Zm6.951,4.877a1.017,1.017,0,1,1,.308-.729A1,1,0,0,1,11.618,11.359Z" fill="#fff"/>
    </g>
  </g>
</svg>
