<svg xmlns="http://www.w3.org/2000/svg" xmlns:xlink="http://www.w3.org/1999/xlink" width="14" height="14" viewBox="0 0 14 14">
  <defs>
    <clipPath id="clip-path">
      <rect id="Прямоугольник_2997" data-name="Прямоугольник 2997" width="14" height="14" transform="translate(655 570)" fill="#fb5f17"/>
    </clipPath>
  </defs>
  <g id="Группа_масок_318" data-name="Группа масок 318" transform="translate(-655 -570)" clip-path="url(#clip-path)">
    <g id="commerce-and-shopping" transform="translate(655 570)">
      <path id="Контур_2441" data-name="Контур 2441" d="M.867,9.053H.575a.575.575,0,0,0,0,1.15H.867a.575.575,0,0,0,0-1.15Z" fill="#fb5f17"/>
      <path id="Контур_2442" data-name="Контур 2442" d="M13.671,8.451H10.212a.575.575,0,0,1-.575-.575V4.709a.329.329,0,0,0-.329-.329H8.481a.329.329,0,0,0-.328.345q.006.114.006.23A4.665,4.665,0,0,1,2.446,9.5a.329.329,0,0,0-.4.32V10.8a.575.575,0,0,0,.575.575H3.6a1.743,1.743,0,0,0,3.29,0H8.859a1.743,1.743,0,0,0,3.29,0h1.275A.575.575,0,0,0,14,10.8V8.78a.329.329,0,0,0-.329-.329ZM5.248,11.39a.593.593,0,1,1,.593-.593A.594.594,0,0,1,5.248,11.39Zm5.257,0A.593.593,0,1,1,11.1,10.8.594.594,0,0,1,10.5,11.39Z" fill="#fb5f17"/>
      <path id="Контур_2443" data-name="Контур 2443" d="M11.116,7.3H13.17a.329.329,0,0,0,.282-.5L12.166,4.66a.575.575,0,0,0-.493-.279h-.557a.329.329,0,0,0-.329.329V6.973A.329.329,0,0,0,11.116,7.3Z" fill="#fb5f17"/>
      <path id="Контур_2444" data-name="Контур 2444" d="M3.5,1.46a3.5,3.5,0,1,0,3.5,3.5,3.5,3.5,0,0,0-3.5-3.5Zm.991,4.486a.575.575,0,0,1-.813,0l-.584-.584a.575.575,0,0,1-.168-.407V3.788a.575.575,0,1,1,1.15,0v.93l.416.416a.575.575,0,0,1,0,.813Z" fill="#fb5f17"/>
    </g>
  </g>
</svg>
