<svg xmlns="http://www.w3.org/2000/svg" width="12.816" height="10.415" viewBox="0 0 12.816 10.415">
  <path id="Контур_568" data-name="Контур 568" d="M17.738,7.905a5.246,5.246,0,0,1-1.51.414,2.636,2.636,0,0,0,1.156-1.454,5.264,5.264,0,0,1-1.67.638,2.632,2.632,0,0,0-4.481,2.4,7.464,7.464,0,0,1-5.42-2.748,2.632,2.632,0,0,0,.814,3.511,2.611,2.611,0,0,1-1.191-.329c0,.011,0,.022,0,.033a2.631,2.631,0,0,0,2.109,2.578,2.64,2.64,0,0,1-1.187.045,2.632,2.632,0,0,0,2.456,1.826,5.308,5.308,0,0,1-3.893,1.089,7.477,7.477,0,0,0,11.511-6.3c0-.114,0-.227-.008-.34a5.332,5.332,0,0,0,1.312-1.361Z" transform="translate(-4.922 -6.672)" fill="#fff"/>
</svg>
