<svg xmlns="http://www.w3.org/2000/svg" xmlns:xlink="http://www.w3.org/1999/xlink" width="14" height="14" viewBox="0 0 14 14">
  <defs>
    <clipPath id="clip-path">
      <rect id="Прямоугольник_3029" data-name="Прямоугольник 3029" width="14" height="14" transform="translate(1088 14)" fill="#fff"/>
    </clipPath>
  </defs>
  <g id="Группа_масок_317" data-name="Группа масок 317" transform="translate(-1088 -14)" clip-path="url(#clip-path)">
    <g id="internet" transform="translate(1088 14.004)">
      <path id="Контур_2425" data-name="Контур 2425" d="M7.25,13.982c1.071-.152,2.009-1.269,2.6-2.92a12.708,12.708,0,0,0-2.6-.306Zm0,0" fill="#fff"/>
      <path id="Контур_2426" data-name="Контур 2426" d="M8.961,13.719c.063-.018.126-.037.189-.057s.1-.035.157-.054.123-.043.184-.066l.155-.062.178-.075.154-.07c.058-.027.115-.055.172-.084l.15-.078.167-.092L10.614,13l.162-.1c.048-.031.1-.062.143-.094s.1-.073.157-.11l.138-.1.152-.119c.045-.036.089-.071.133-.107s.1-.085.146-.128.085-.075.127-.114.094-.091.141-.137.081-.079.121-.12l.022-.024a8.41,8.41,0,0,0-1.714-.66,6.209,6.209,0,0,1-1.6,2.6l.061-.015.158-.047Zm0,0" fill="#fff"/>
      <path id="Контур_2427" data-name="Контур 2427" d="M14,7.246H11a12.976,12.976,0,0,1-.505,3.462,8.7,8.7,0,0,1,1.9.756A6.99,6.99,0,0,0,14,7.246Zm0,0" fill="#fff"/>
      <path id="Контур_2428" data-name="Контур 2428" d="M7.25,6.746H10.5a12.517,12.517,0,0,0-.493-3.338,13.179,13.179,0,0,1-2.757.329Zm0,0" fill="#fff"/>
      <path id="Контур_2429" data-name="Контур 2429" d="M7.25.01V3.236a12.716,12.716,0,0,0,2.6-.306C9.259,1.279,8.321.162,7.25.01Zm0,0" fill="#fff"/>
      <path id="Контур_2430" data-name="Контур 2430" d="M7.25,10.256a13.187,13.187,0,0,1,2.757.329A12.518,12.518,0,0,0,10.5,7.246H7.25Zm0,0" fill="#fff"/>
      <path id="Контур_2431" data-name="Контур 2431" d="M12.394,2.528a8.7,8.7,0,0,1-1.9.756A12.976,12.976,0,0,1,11,6.746h3a6.993,6.993,0,0,0-1.606-4.217Zm0,0" fill="#fff"/>
      <path id="Контур_2432" data-name="Контур 2432" d="M12.056,2.149l-.022-.023c-.04-.041-.081-.08-.121-.12s-.093-.092-.141-.137-.084-.075-.127-.114-.1-.086-.147-.128-.088-.071-.132-.107-.1-.081-.153-.12-.091-.067-.137-.1-.1-.075-.158-.111-.094-.062-.142-.092-.108-.069-.163-.1L10.468.911Q10.384.863,10.3.818L10.15.74c-.058-.029-.116-.057-.175-.085L9.822.586C9.763.56,9.7.536,9.643.511L9.488.449C9.428.426,9.366.4,9.3.383L9.148.33C9.085.309,9.022.291,8.958.272S8.854.242,8.8.228L8.74.213a6.209,6.209,0,0,1,1.6,2.6,8.4,8.4,0,0,0,1.716-.66Zm0,0" fill="#fff"/>
      <path id="Контур_2433" data-name="Контур 2433" d="M0,6.746H3a12.981,12.981,0,0,1,.505-3.462,8.691,8.691,0,0,1-1.9-.756A6.991,6.991,0,0,0,0,6.746Zm0,0" fill="#fff"/>
      <path id="Контур_2434" data-name="Контур 2434" d="M6.75,13.982V10.756a12.716,12.716,0,0,0-2.6.306c.59,1.65,1.529,2.768,2.6,2.92Zm0,0" fill="#fff"/>
      <path id="Контур_2435" data-name="Контур 2435" d="M6.75,7.246H3.5a12.513,12.513,0,0,0,.493,3.339,13.17,13.17,0,0,1,2.757-.329Zm0,0" fill="#fff"/>
      <path id="Контур_2436" data-name="Контур 2436" d="M6.75.01C5.679.162,4.741,1.279,4.15,2.93a12.7,12.7,0,0,0,2.6.306Zm0,0" fill="#fff"/>
      <path id="Контур_2437" data-name="Контур 2437" d="M6.75,3.736a13.179,13.179,0,0,1-2.757-.329A12.512,12.512,0,0,0,3.5,6.746H6.75Zm0,0" fill="#fff"/>
      <path id="Контур_2438" data-name="Контур 2438" d="M5.258.212,5.2.227,5.039.272c-.063.018-.125.037-.188.057L4.693.383C4.632.4,4.571.426,4.51.449L4.354.511,4.176.586l-.154.07C3.965.683,3.907.711,3.85.74L3.7.818,3.533.911Q3.458.953,3.386,1l-.162.1c-.048.031-.1.062-.143.094s-.1.073-.157.11l-.138.1c-.051.038-.1.079-.152.119s-.089.071-.133.108-.1.084-.146.127-.086.075-.128.115-.094.09-.14.136-.081.079-.121.12l-.022.024a8.4,8.4,0,0,0,1.714.66,6.207,6.207,0,0,1,1.6-2.6Zm0,0" fill="#fff"/>
      <path id="Контур_2439" data-name="Контур 2439" d="M2.087,11.986c.047.046.093.092.141.137s.084.075.127.113.1.086.147.128.087.071.132.107.1.081.153.12l.137.1c.052.038.105.075.158.111l.142.093c.054.035.108.069.163.1l.146.085q.084.048.169.093l.15.077c.058.029.116.057.175.085l.152.07c.059.026.119.05.179.075l.155.062c.061.023.122.045.184.066s.1.037.157.054.125.039.189.057l.157.045.061.015a6.21,6.21,0,0,1-1.6-2.6,8.4,8.4,0,0,0-1.714.66l.022.023c.038.041.078.08.119.12Zm0,0" fill="#fff"/>
      <path id="Контур_2440" data-name="Контур 2440" d="M1.606,11.463a8.7,8.7,0,0,1,1.9-.756A12.98,12.98,0,0,1,3,7.246H0a6.992,6.992,0,0,0,1.606,4.217Zm0,0" fill="#fff"/>
    </g>
  </g>
</svg>
