<?xml version="1.0" standalone="no"?>
<!DOCTYPE svg PUBLIC "-//W3C//DTD SVG 1.1//EN" "http://www.w3.org/Graphics/SVG/1.1/DTD/svg11.dtd" >
<svg xmlns="http://www.w3.org/2000/svg">
<metadata>
<json>
<![CDATA[
{
	"fontFamily": "forhome",
	"majorVersion": 1,
	"minorVersion": 0,
	"version": "Version 1.0",
	"fontId": "forhome",
	"psName": "forhome",
	"subFamily": "Regular",
	"fullName": "forhome",
	"description": "Font generated by IcoMoon."
}
]]>
</json>
</metadata>
<defs>
<font id="forhome" horiz-adv-x="1024">
<font-face units-per-em="1024" ascent="960" descent="-64" />
<missing-glyph horiz-adv-x="1024" />
<glyph unicode="&#x20;" horiz-adv-x="512" d="" />
<glyph unicode="&#xe900;" glyph-name="plus-ico" data-tags="plus-ico" d="M78.769 526.769h866.462c43.503 0 78.769-35.266 78.769-78.769s-35.266-78.769-78.769-78.769h-866.462c-43.503 0-78.769 35.266-78.769 78.769s35.266 78.769 78.769 78.769zM433.231 14.769v866.462c0 43.503 35.266 78.769 78.769 78.769s78.769-35.266 78.769-78.769v-866.462c0-43.503-35.266-78.769-78.769-78.769s-78.769 35.266-78.769 78.769z" />
<glyph unicode="&#xe901;" glyph-name="slider-ar-right" data-tags="slider-ar-right" d="M810.325 507.136l-428.459 427.861c-14.305 15.413-34.673 25.027-57.287 25.027-0.68 0-1.358-0.009-2.034-0.026l0.1 0.002c-0.54 0.013-1.176 0.021-1.814 0.021-22.624 0-43.004-9.612-57.277-24.975l-0.045-0.049-49.92-49.237c-15.018-14.633-24.334-35.056-24.334-57.655 0-0.521 0.005-1.040 0.015-1.559l-0.001 0.078c-0.001-0.167-0.002-0.364-0.002-0.562 0-23.074 9.288-43.978 24.329-59.179l-0.007 0.007 319.403-318.891-319.403-319.403c-15.018-14.633-24.334-35.056-24.334-57.655 0-0.521 0.005-1.040 0.015-1.559l-0.001 0.078c-0.001-0.167-0.002-0.364-0.002-0.562 0-23.074 9.288-43.978 24.329-59.179l-0.007 0.007 49.92-49.323c14.654-15.068 35.121-24.417 57.772-24.417 0.48 0 0.958 0.004 1.436 0.013l-0.072-0.001c0.441-0.009 0.96-0.014 1.481-0.014 22.599 0 43.022 9.316 57.638 24.316l0.017 0.017 428.544 427.947c15.034 15.193 24.322 36.098 24.322 59.172 0 0.198-0.001 0.395-0.002 0.592v-0.030c0.009 0.441 0.014 0.96 0.014 1.481 0 22.599-9.316 43.022-24.316 57.638l-0.017 0.017z" />
<glyph unicode="&#xe902;" glyph-name="minus-ico" data-tags="minus-ico" horiz-adv-x="6656" d="M512 960h5632c282.77 0 512-229.23 512-512s-229.23-512-512-512h-5632c-282.77 0-512 229.23-512 512s229.23 512 512 512z" />
<glyph unicode="&#xe903;" glyph-name="googleplus-ico" data-tags="googleplus-ico" horiz-adv-x="1611" d="M0.339 447.323c1.453 283.101 231.286 512.036 514.59 512.036 129.896 0 248.551-48.128 339.105-127.525l-0.588 0.505c-41.764-45.94-84.317-91.429-129.806-133.982-58.934 43.934-133.186 70.34-213.606 70.34-31.625 0-62.296-4.083-91.515-11.752l2.503 0.558c-132.896-42.191-227.508-164.47-227.508-308.846 0-178.601 144.785-323.386 323.386-323.386 43.929 0 85.813 8.759 123.999 24.626l-2.142-0.789c82.537 34.894 144.059 105.471 165.847 191.854l0.417 1.952c-97.75 1.919-195.499 0.677-293.474 3.386 0 58.131 0 116.148 0 174.279 162.991 0 326.321 0.677 489.538-0.677 2.908-21.787 4.568-46.976 4.568-72.552 0-126.417-40.55-243.362-109.353-338.539l1.166 1.695c-93.134-107.948-230.113-175.863-382.955-175.863-60.59 0-118.687 10.673-172.514 30.241l3.511-1.116c-202.48 71.176-345.054 260.701-345.171 483.541v0.014zM1318.829 667.316h145.496c0-48.649 0.677-97.524 1.016-146.173 48.649 0 97.524-0.677 146.173-1.016v-145.721l-146.173-0.677c0-48.875-0.677-97.524-1.016-146.737-48.649 0-97.298 0-145.721 0 0 48.875 0 97.524-1.016 146.173-48.649 0-97.524 0.677-146.173 1.016v146.060q72.917 0 146.173 1.016c0 48.536 0.677 97.411 1.242 146.060z" />
<glyph unicode="&#xe904;" glyph-name="file-ico" data-tags="file-ico" d="M946.56 804.928h-207.104l112.192-112.192v-661.696h-619.328v-95.232h714.24zM749.312 710.272l-207.296 207.296v-207.296zM481.984 960h-404.544v-868.928h714.24v559.232h-309.696zM168.384 865.152h222.528v-60.032h-222.464zM168.384 710.272h222.528v-60.032h-222.464zM700.864 185.6h-532.416v60.032h532.416zM700.864 340.48h-532.416v60.096h532.416zM700.864 555.328v-60.032h-532.416v60.16z" />
<glyph unicode="&#xe905;" glyph-name="twitter-ico" data-tags="twitter-ico" horiz-adv-x="1260" d="M1260.066 838.772c-43.232-19.708-93.383-34.041-145.978-40.457l-2.484-0.247c53.447 32.357 93.631 82.039 113.134 141.126l0.523 1.831c-47.262-28.54-102.272-50.303-160.873-62.167l-3.321-0.561c-47.315 50.242-114.275 81.528-188.543 81.528-142.919 0-258.778-115.859-258.778-258.778 0-20.826 2.46-41.078 7.106-60.48l-0.356 1.762c-215.391 11.1-404.849 113.467-531.852 268.869l-1.041 1.314c-22.017-37.263-35.025-82.113-35.025-130.002 0-89.345 45.278-168.115 114.14-214.615l0.917-0.584c-43.194 1.363-83.346 13.19-118.376 33.012l1.277-0.665c0-1.082 0-2.163 0-3.245 0.034-124.671 88.258-228.726 205.677-253.176l1.679-0.292c-20.372-5.745-43.767-9.048-67.934-9.048-17.25 0-34.108 1.683-50.417 4.893l1.646-0.27c34.018-103.513 128.841-177.337 241.217-179.528l0.256-0.004c-87.653-69.015-199.648-110.692-321.378-110.692-21.631 0-42.955 1.316-63.896 3.872l2.515-0.25c112.151-72.853 249.327-116.172 396.622-116.172 406.005 0 735.137 329.132 735.137 735.137 0 0.158 0 0.316 0 0.474v-0.024c0 11.208 0 22.319-0.787 33.429 50.813 36.983 93.619 81.322 127.813 131.956l1.182 1.857z" />
<glyph unicode="&#xe906;" glyph-name="cancel-ico" data-tags="cancel-ico" d="M845.235-33.42l-333.235 333.235-333.235-333.235c-18.95-18.945-45.127-30.662-74.041-30.662s-55.090 11.717-74.041 30.662v0c-18.945 18.95-30.662 45.127-30.662 74.041s11.717 55.090 30.662 74.041l333.234 333.234-333.235 333.235c-18.945 18.95-30.662 45.127-30.662 74.041s11.717 55.090 30.662 74.041v0c18.95 18.945 45.127 30.662 74.041 30.662s55.090-11.717 74.041-30.662l333.234-333.234 333.235 333.235c18.95 18.945 45.127 30.662 74.041 30.662s55.090-11.717 74.041-30.662v0c18.945-18.95 30.662-45.127 30.662-74.041s-11.717-55.090-30.662-74.041l-333.234-333.234 333.235-333.235c18.945-18.95 30.662-45.127 30.662-74.041s-11.717-55.090-30.662-74.041v0c-18.947-18.953-45.124-30.678-74.039-30.684h-0.001c-28.916 0.006-55.093 11.731-74.040 30.684v0z" />
<glyph unicode="&#xe907;" glyph-name="callcenter-ico" data-tags="callcenter-ico" d="M948.352 150.246l-267.827 87.834v92.365c18.867 27.631 31.872 60.72 36.465 96.443l0.117 1.118h48.333c42.271 0.044 76.526 34.299 76.57 76.565v81.924c0 0.067 0 0.146 0 0.225 0 16.083-4.989 31.001-13.503 43.291l0.165-0.252v13.568c0 174.893-141.779 316.672-316.672 316.672s-316.672-141.779-316.672-316.672v0-13.568c-8.349-12.040-13.338-26.961-13.338-43.047 0-0.022 0-0.045 0-0.067v0.003-81.92c0-0.023 0-0.050 0-0.077 0-42.304 34.272-76.603 76.566-76.646h48.337c4.769-37.324 18.063-70.826 37.865-99.487l-0.489 0.748v-90.957l-268.646-88.064c-44.272-14.77-75.623-55.84-75.623-104.233 0-0.058 0-0.115 0-0.173v0.009-109.85h1024v109.85c0 0.046 0 0.101 0 0.156 0 48.402-31.362 89.478-74.874 104.017l-0.774 0.224zM404.275 270.566c30.381-20.047 67.652-31.981 107.711-31.981 40.404 0 77.972 12.14 109.256 32.972l-0.724-0.453v-41.395c-22.784-19.635-68.736-52.070-108.518-52.070s-85.222 32.384-107.725 51.968zM658.918 609.536c-43.796 8.050-76.554 45.898-76.621 91.41v0.007h-60.058c-0.058-51.271-41.606-92.819-92.871-92.877h-64.287v28.928c0 81.148 65.783 146.931 146.931 146.931s146.931-65.783 146.931-146.931v0zM365.082 546.074v2.099h64.358c50.204 0.005 94.75 24.228 122.591 61.623l0.289 0.406c24.962-33.516 62.721-56.299 105.909-61.096l0.69-0.062v-92.032c-0.018-12.174-1.313-24.035-3.758-35.47l0.2 1.115h-108.928v-60.006h83.507c-25.838-38.365-68.904-63.409-117.854-63.974l-0.086-0.001c-81.896 3.368-147.012 70.576-147.012 152.992 0 1.879 0.034 3.751 0.101 5.614l-0.008-0.27v89.062zM782.003 504.576c-0.015-9.142-7.421-16.549-16.562-16.563h-46.516v115.2h46.515c9.142-0.015 16.549-7.421 16.563-16.562v-0.001zM512 899.994c134.79-0.117 245.284-103.982 255.941-236.044l0.059-0.91h-50.714c-13.447 102.47-100.224 180.76-205.286 180.76s-191.839-78.289-205.174-179.711l-0.113-1.048h-50.714c10.728 132.965 121.215 236.824 255.987 236.954h0.013zM241.997 504.55v81.92c0.015 9.142 7.421 16.549 16.562 16.563h46.516v-115.2h-46.515c-9.142 0.015-16.549 7.421-16.563 16.562v0.001zM963.917-4.019h-146.483v62.029h-60.006v-62.003h-490.854v62.003h-60.006v-62.003h-146.56v49.843c0 0.027 0 0.060 0 0.092 0 21.962 14.233 40.6 33.979 47.192l0.351 0.102 272.742 89.395c25.882-22.067 83.942-64.87 144.922-64.87s119.296 42.701 145.408 64.768l272.256-89.242c20.096-6.694 34.33-25.331 34.33-47.293 0-0.023 0-0.047 0-0.070v0.004z" />
<glyph unicode="&#xe908;" glyph-name="world-ico" data-tags="world-ico" d="M530.286-62.976c78.336 11.118 146.944 92.818 190.171 213.577-56.781 13.302-122.268 21.405-189.482 22.374l-0.69 0.008zM655.433-43.739c4.608 1.317 9.216 2.706 13.824 4.169s7.314 2.56 11.483 3.95 8.997 3.145 13.458 4.827l11.337 4.535 13.019 5.486 11.264 5.12c4.242 1.975 8.411 4.023 12.581 6.144l10.971 5.705 22.967 12.654 11.849 7.314c3.511 2.267 7.314 4.535 10.459 6.875s7.314 5.339 11.483 8.046l10.094 7.314 11.118 8.704c3.291 2.633 6.51 5.193 9.728 7.826s7.314 6.217 10.679 9.362 6.217 5.486 9.289 8.338 6.875 6.656 10.313 10.021 5.925 5.778 8.85 8.777l1.609 1.755c-35.803 18.975-77.47 35.463-121.058 47.279l-4.309 0.995c-23.883-74.902-64.203-138.829-116.921-190.068l-0.107-0.104 4.462 1.097 11.557 3.438zM1024 429.714h-219.429c-0.898-90.526-14.33-177.561-38.636-259.934l1.699 6.713c52.955-14.334 99.133-33.217 142.262-56.956l-3.291 1.66c69.517 83.37 113.149 190.47 117.369 307.617l0.026 0.9zM530.286 466.286h237.714c-1.030 87.355-14.132 171.246-37.711 250.63l1.651-6.479c-60.236-14.366-129.672-23.083-200.977-24.057l-0.678-0.007zM530.286 958.976v-235.959c67.906 0.981 133.393 9.084 196.432 23.595l-6.26-1.213c-43.227 120.759-111.835 202.459-190.171 213.577zM530.286 209.554c71.986-0.986 141.42-9.702 208.184-25.354l-6.529 1.29c21.933 72.93 35.036 156.847 36.054 243.669l0.005 0.555h-237.714zM906.533 774.802c-39.837-22.079-86.015-40.962-134.506-54.253l-4.466-1.043c22.63-75.653 36.086-162.684 37.006-252.718l0.004-0.503h219.429c-4.302 118.027-47.952 225.093-118.133 309.264l0.666-0.821zM881.81 802.523l-1.609 1.682c-2.926 2.999-5.925 5.851-8.85 8.777s-6.802 6.729-10.313 10.021-6.144 5.486-9.289 8.338-7.314 6.29-10.752 9.362-6.437 5.193-9.655 7.826-7.314 5.925-11.191 8.777-6.656 4.901-10.021 7.314-7.314 5.486-11.557 8.119-6.875 4.535-10.386 6.729-7.899 5.047-11.922 7.314l-10.606 6.29q-6.144 3.511-12.288 6.802l-10.971 5.705c-4.242 2.121-8.485 4.169-12.8 6.217l-11.191 5.047c-4.315 1.902-8.923 3.657-13.093 5.486l-11.337 4.535c-4.389 1.682-8.923 3.584-13.751 4.827l-11.118 3.877c-4.608 1.536-9.216 2.853-13.897 4.242s-7.607 2.194-11.557 3.218l-4.389 1.097c52.825-51.343 93.145-115.27 116.138-186.956l0.891-3.215c47.946 12.792 89.664 29.282 128.882 49.887l-3.368-1.612zM0 466.286h219.429c0.903 90.527 14.334 177.562 38.636 259.936l-1.699-6.716c-52.953 14.326-99.132 33.21-142.258 56.955l3.287-1.659c-69.513-83.372-113.144-190.47-117.368-307.615l-0.026-0.901zM493.714-62.976v235.959c-67.906-0.981-133.393-9.084-196.432-23.595l6.26 1.213c43.154-120.686 111.835-202.459 190.171-213.577zM493.714 429.714h-237.714c1.019-87.376 14.122-171.293 37.71-250.699l-1.651 6.475c60.239 14.371 129.674 23.088 200.98 24.057l0.674 0.007zM493.714 958.976c-78.336-11.118-146.944-92.818-190.171-213.577 56.783-13.306 122.271-21.41 189.486-22.374l0.685-0.008zM493.714 686.446c-71.983 0.981-141.418 9.698-208.181 25.354l6.526-1.29c-21.938-72.93-35.042-156.848-36.054-243.672l-0.005-0.552h237.714zM384.585 944.201l-4.242-1.097-11.776-3.291c-4.608-1.317-9.143-2.706-13.751-4.169l-11.557-3.95c-4.462-1.243-8.923-3.145-13.385-4.827l-11.41-4.535-13.019-5.486-11.264-5.12c-4.169-1.975-8.411-4.023-12.581-6.144l-10.971-5.705-12.215-6.802q-5.486-3.072-10.752-6.51l-11.849-7.314c-3.511-2.267-7.314-4.535-10.459-6.875s-7.314-5.339-11.483-8.046l-10.094-7.314c-3.73-2.779-7.314-5.778-11.118-8.704s-6.51-5.193-9.728-7.899-7.314-6.144-10.679-9.289-6.29-5.486-9.362-8.411-6.875-6.583-10.24-9.947-5.925-5.778-8.85-8.777l-1.609-1.755c35.806-18.982 77.473-35.47 121.064-47.281l4.303-0.993c23.877 74.904 64.198 138.832 116.921 190.067l0.108 0.104zM152.649 83.017c3.438-3.365 6.802-6.729 10.313-10.021s6.144-5.486 9.289-8.265 7.314-6.29 10.752-9.362 6.363-5.193 9.655-7.826 7.314-5.925 11.191-8.777l10.021-7.314c3.803-2.779 7.68-5.486 11.557-8.119l10.386-6.802c3.95-2.56 7.899-5.047 11.922-7.314l10.679-6.217q6.144-3.511 12.361-6.802l10.971-5.632c4.242-2.121 8.485-4.169 12.8-6.217l11.118-5.12c4.315-1.902 8.704-3.657 13.093-5.486l11.337-4.535c4.462-1.682 8.923-3.291 13.458-4.827s7.314-2.706 11.483-3.95 9.143-2.853 13.824-4.169l11.483-3.291 4.462-1.097c-52.822 51.344-93.142 115.271-116.137 186.955l-0.891 3.216c-47.894-12.804-89.561-29.293-128.733-49.887l3.366 1.612 1.609-1.682c2.779-2.999 5.705-5.851 8.704-8.777zM117.467 121.271c39.837 22.079 86.015 40.962 134.506 54.253l4.466 1.043c-22.619 75.628-36.075 162.632-37.006 252.638l-0.004 0.51h-219.429c4.296-118.028 47.948-225.095 118.133-309.264l-0.665 0.82z" />
<glyph unicode="&#xe909;" glyph-name="trucktime-ico" data-tags="trucktime-ico" d="M63.415 297.838h-21.358c-23.228 0-42.057-18.83-42.057-42.057s18.83-42.057 42.057-42.057v0h21.358c23.228 0 42.057 18.83 42.057 42.057s-18.83 42.057-42.057 42.057v0zM999.936 341.87h-253.001c-23.228 0-42.057 18.83-42.057 42.057v231.643c0 13.29-10.774 24.064-24.064 24.064v0h-60.489c-13.271-0.025-24.019-10.789-24.019-24.064 0-0.412 0.010-0.821 0.031-1.227l-0.002 0.057q0.439-8.338 0.439-16.823c-0.032-188.422-152.785-341.156-341.211-341.156-27.183 0-53.624 3.179-78.971 9.185l2.317-0.463c-1.561 0.36-3.353 0.567-5.193 0.567-13.258 0-24.012-10.722-24.064-23.968v-71.685c0-23.228 18.83-42.057 42.057-42.057h71.607c17.931-50.124 65.013-85.342 120.32-85.342s102.389 35.218 120.042 84.452l0.278 0.89h144.018c17.931-50.124 65.013-85.342 120.32-85.342s102.389 35.218 120.042 84.452l0.278 0.89h93.257c0.022 0 0.047 0 0.073 0 23.228 0 42.057 18.83 42.057 42.057 0 0 0 0 0 0v0 147.749c0 13.29-10.774 24.064-24.064 24.064v0zM383.854 126.903c-23.955 0-43.374 19.419-43.374 43.374s19.419 43.374 43.374 43.374c23.955 0 43.374-19.419 43.374-43.374v0c-0.042-23.938-19.436-43.332-43.37-43.374h-0.004zM768.366 126.903c-23.891 0.083-43.227 19.47-43.227 43.373 0 23.955 19.419 43.374 43.374 43.374s43.374-19.419 43.374-43.374c0-0.077 0-0.154-0.001-0.231v0.012c-0.165-23.87-19.553-43.157-43.446-43.157-0.155 0-0.309 0.001-0.463 0.002h0.024zM813.056 426.057h150.235c0.020 0 0.044 0 0.068 0 13.29 0 24.064 10.774 24.064 24.064 0 4.624-1.304 8.944-3.565 12.611l0.060-0.104-94.062 156.526c-7.485 12.31-20.825 20.407-36.056 20.407-0.001 0-0.002 0-0.003 0h-40.74c-13.29 0-24.064-10.774-24.064-24.064v0-165.522c0.083-13.227 10.825-23.918 24.064-23.918 0 0 0 0 0 0v0zM256 853.211c-141.385 0-256-114.615-256-256s114.615-256 256-256c141.385 0 256 114.615 256 256v0c0 141.385-114.615 256-256 256v0zM328.485 525.093c-7.61-7.607-18.122-12.312-29.733-12.312s-22.122 4.705-29.733 12.312l-42.715 42.715c-7.593 7.608-12.288 18.11-12.288 29.709 0 0.021 0 0.043 0 0.064v-0.003 85.358c0 23.228 18.83 42.057 42.057 42.057s42.057-18.83 42.057-42.057v0-68.023l30.427-30.427c7.607-7.61 12.312-18.122 12.312-29.733s-4.705-22.122-12.312-29.733v0z" />
<glyph unicode="&#xe90a;" glyph-name="truck-ico" data-tags="truck-ico" d="M1012.736 853.943c-6.668 6.948-16.031 11.265-26.402 11.265-0.104 0-0.207 0-0.311-0.001h-607.070c-20.819-0.325-37.604-17.136-37.888-37.934v-113.764h-94.574c-12.602-0.293-24.477-3.091-35.249-7.912l0.58 0.232c-11.607-4.544-21.548-10.962-29.951-18.978l0.036 0.034-117.029-117.029c-5.267-5.243-9.81-11.207-13.469-17.734l-0.209-0.406c-3.009-5.124-5.797-11.086-8.030-17.313l-0.236-0.753c-1.991-6.445-3.373-13.93-3.862-21.658l-0.014-0.285q-1.17-13.897-1.463-20.48t0-22.528q0-16.018 0-20.773v-189.586c-0.088 0.001-0.191 0.001-0.295 0.001-10.371 0-19.734-4.317-26.39-11.253l-0.012-0.013c-6.732-6.637-10.903-15.856-10.903-26.050 0-0.202 0.002-0.403 0.005-0.605v0.030c-0.006-0.28-0.009-0.61-0.009-0.941 0-5.286 0.86-10.37 2.447-15.122l-0.098 0.337c1.529-4.5 4.304-8.244 7.913-10.929l0.060-0.043q5.632-4.169 9.801-6.802c4.038-2.114 8.797-3.421 13.845-3.583l0.052-0.001 13.312-1.17q3.584 0 15.141 0h51.2c-0.010-0.625-0.015-1.363-0.015-2.103 0-41.241 17.066-78.495 44.52-105.087l0.039-0.037c26.574-27.109 63.572-43.913 104.495-43.913 0.986 0 1.971 0.010 2.952 0.029l-0.147-0.002c0.899-0.020 1.958-0.031 3.021-0.031 40.925 0 77.926 16.806 104.476 43.893l0.024 0.024c27.111 26.574 43.917 63.574 43.917 104.499 0 1.062-0.011 2.121-0.034 3.178l0.003-0.158h227.84c0.045-83.747 67.945-151.619 151.698-151.619 41.871 0 79.779 16.963 107.228 44.393l-0.001-0.001c27.451 26.624 44.487 63.85 44.487 105.055 0 0.764-0.006 1.526-0.018 2.288l0.001-0.115h13.312q11.557 0 15.141 0l13.312 1.17c5.1 0.161 9.859 1.468 14.077 3.67l-0.18-0.086q4.169 2.633 9.801 6.802c3.672 2.725 6.448 6.469 7.926 10.814l0.047 0.158c1.532 4.452 2.417 9.581 2.417 14.917 0 0.181-0.001 0.363-0.003 0.543v-0.028 607.086c0 0.001 0 0.002 0 0.004 0 10.371-4.317 19.733-11.251 26.389l-0.013 0.012zM318.83 129.17c-13.529-13.898-32.418-22.519-53.321-22.519s-39.792 8.622-53.305 22.503l-0.016 0.017c-13.542 13.694-21.908 32.532-21.908 53.324 0 41.672 33.606 75.495 75.196 75.846h0.033c0.131 0.001 0.285 0.001 0.44 0.001 41.648 0 75.41-33.762 75.41-75.41 0-21.043-8.619-40.072-22.519-53.751l-0.010-0.010zM341.358 485.888h-227.621v17.774c-0.002 0.094-0.003 0.205-0.003 0.317 0 4.976 2.044 9.474 5.339 12.7l115.569 115.569c3.218 3.298 7.706 5.343 12.673 5.343 0.122 0 0.244-0.001 0.365-0.004h93.605zM849.774 129.17c-13.383-13.025-31.683-21.057-51.858-21.057-41.082 0-74.386 33.304-74.386 74.386s33.304 74.386 74.386 74.386c41.082 0 74.386-33.304 74.386-74.386 0-0.003 0-0.006 0-0.009v0c0.001-0.154 0.002-0.336 0.002-0.518 0-20.742-8.634-39.468-22.505-52.779l-0.025-0.024z" />
<glyph unicode="&#xe90b;" glyph-name="smartphone-ico" data-tags="smartphone-ico" d="M788.773 929.573c-17.946 18.766-43.182 30.431-71.143 30.431-0.292 0-0.583-0.001-0.874-0.004h-409.556c-0.246 0.002-0.538 0.003-0.829 0.003-27.961 0-53.197-11.665-71.108-30.394l-0.035-0.037c-18.766-17.946-30.431-43.182-30.431-71.143 0-0.292 0.001-0.583 0.004-0.874v0.044-819.2c-0.002-0.246-0.003-0.538-0.003-0.829 0-27.961 11.665-53.197 30.394-71.108l0.037-0.035c17.946-18.766 43.182-30.431 71.143-30.431 0.292 0 0.583 0.001 0.874 0.004h409.556c56.225 0.811 101.589 46.175 102.399 102.323l0.001 0.077v819.2c0.002 0.246 0.003 0.538 0.003 0.829 0 27.961-11.665 53.197-30.394 71.108l-0.037 0.035zM448 857.6h128c0.472 0.070 1.018 0.11 1.572 0.11 6.261 0 11.337-5.076 11.337-11.337 0-0.555-0.040-1.1-0.117-1.633l0.007 0.061c0.070-0.472 0.11-1.018 0.11-1.572 0-6.261-5.076-11.337-11.337-11.337-0.555 0-1.1 0.040-1.633 0.117l0.061-0.007h-128c-0.472-0.070-1.018-0.11-1.572-0.11-6.261 0-11.337 5.076-11.337 11.337 0 0.555 0.040 1.1 0.117 1.633l-0.007-0.061c-0.070 0.472-0.11 1.018-0.11 1.572 0 6.261 5.076 11.337 11.337 11.337 0.555 0 1.1-0.040 1.633-0.117l-0.061 0.007zM557.202-6.802c-11.53-11.472-27.428-18.564-44.983-18.564-35.225 0-63.781 28.556-63.781 63.781s28.556 63.781 63.781 63.781c35.225 0 63.781-28.556 63.781-63.781 0-0.005 0-0.010 0-0.015v0.001c0.004-0.259 0.006-0.565 0.006-0.871 0-17.394-7.202-33.105-18.787-44.315l-0.017-0.016zM742.4 166.4c-0.203-14.056-11.544-25.397-25.581-25.6h-409.619c-14.072 0.163-25.437 11.528-25.6 25.584v563.216c0.203 14.056 11.544 25.397 25.581 25.6h409.619c14.056-0.203 25.397-11.544 25.6-25.581v-563.219zM322.999 727.991h378.002c11.594 0 20.992-9.398 20.992-20.992v0-517.998c0-11.594-9.398-20.992-20.992-20.992v0h-378.002c-11.594 0-20.992 9.398-20.992 20.992v0 517.998c0 11.594 9.398 20.992 20.992 20.992v0z" />
<glyph unicode="&#xe90c;" glyph-name="shoptruck-ico" data-tags="shoptruck-ico" d="M307.2 140.8c-56.554 0-102.4-45.846-102.4-102.4s45.846-102.4 102.4-102.4c56.554 0 102.4 45.846 102.4 102.4v0c0 56.554-45.846 102.4-102.4 102.4v0zM0 960v-102.4h102.4l184.32-389.12-71.68-122.88c-5.549-15.099-9.218-32.56-10.219-50.731l-0.021-0.469c0-56.554 45.846-102.4 102.4-102.4v0h614.4v102.4h-593.92c-5.488 0.399-9.841 4.752-10.238 10.204l-0.002 0.036v5.12l46.080 87.040h378.88c1.097-0.046 2.385-0.072 3.678-0.072 36.217 0 67.62 20.613 83.117 50.748l0.245 0.525 184.32 332.8c6.415 5.204 10.482 13.087 10.482 21.919 0 1.298-0.088 2.575-0.258 3.826l0.016-0.146c0.057 0.88 0.090 1.907 0.090 2.942 0 26.702-21.646 48.347-48.347 48.347-1.035 0-2.063-0.033-3.082-0.097l0.139 0.007h-757.76l-46.080 102.4zM819.2 140.8c-56.554 0-102.4-45.846-102.4-102.4s45.846-102.4 102.4-102.4c56.554 0 102.4 45.846 102.4 102.4v0c0 56.554-45.846 102.4-102.4 102.4v0z" />
<glyph unicode="&#xe90d;" glyph-name="search-ico" data-tags="search-ico" d="M709.413 352.329c44.194 61.84 70.662 138.982 70.662 222.307 0 212.643-172.381 385.024-385.024 385.024s-385.024-172.381-385.024-385.024c0-212.643 172.381-385.024 385.024-385.024 72.278 0 139.905 19.916 197.691 54.56l-1.748-0.972 283.941-282.258c14.728-15.501 35.495-25.144 58.514-25.144 44.547 0 80.659 36.112 80.659 80.659 0 21.528-8.434 41.086-22.177 55.55l0.033-0.035-2.926 2.926zM394.898 325.998c-0.13 0-0.285 0-0.439 0-137.345 0-248.686 111.34-248.686 248.686s111.34 248.686 248.686 248.686c137.345 0 248.685-111.34 248.686-248.685v0c0 0 0 0 0 0 0-137.191-111.090-248.436-248.223-248.685h-0.024z" />
<glyph unicode="&#xe90e;" glyph-name="phone-ico" data-tags="phone-ico" d="M941.861 287.89c-0.221 0-0.482 0-0.743 0-65.127 0-127.752 10.708-186.212 30.459l4.098-1.202c-7.664 2.563-16.488 4.042-25.657 4.042-21.362 0-40.85-8.026-55.612-21.228l0.080 0.071-114.615-87.113c-124.631 62.911-223.414 161.672-284.686 282.65l-1.668 3.631 84.407 111.909c15.010 14.988 24.295 35.705 24.295 58.591 0 9.041-1.449 17.744-4.128 25.889l0.167-0.585c-18.55 54.405-29.257 117.079-29.257 182.254 0 0.212 0 0.424 0 0.636v-0.033c-0.083 45.331-36.809 82.056-82.132 82.139h-188.058c-45.331-0.083-82.056-36.809-82.139-82.132v-0.008c0.583-519.941 421.92-941.278 941.804-941.861h0.056c45.331 0.083 82.056 36.809 82.139 82.132v187.546c-0.042 45.362-36.783 82.129-82.131 82.213h-0.008z" />
<glyph unicode="&#xe90f;" glyph-name="person-ico" data-tags="person-ico" d="M512 417.719c129.448 11.287 230.252 119.156 230.252 250.569 0 6.39-0.238 12.724-0.707 18.994l0.050-0.836c0 205.824-102.766 268.727-229.595 268.727s-229.595-62.903-229.595-268.727c-0.418-5.434-0.656-11.768-0.656-18.158 0-131.413 100.803-239.282 229.304-250.502l0.948-0.067zM1019.026 22.235l-115.858 260.901c-5.495 12.058-14.578 21.683-25.87 27.714l-0.315 0.153-179.785 93.623c-1.559 0.835-3.41 1.326-5.376 1.326-2.637 0-5.069-0.884-7.013-2.371l0.028 0.020c-47.31-36.672-107.509-58.787-172.873-58.787s-125.563 22.115-173.522 59.271l0.649-0.484c-1.922 1.459-4.355 2.337-6.993 2.337-1.962 0-3.81-0.486-5.432-1.344l0.063 0.031-179.712-93.623c-11.607-6.184-20.69-15.81-26.035-27.502l-0.15-0.366-115.858-260.901c-3.141-6.907-4.971-14.979-4.971-23.479 0-31.993 25.934-57.928 57.927-57.929h908.142c31.992 0.001 57.927 25.937 57.927 57.929 0 8.5-1.831 16.572-5.119 23.843l0.148-0.365z" />
<glyph unicode="&#xe910;" glyph-name="heart-ico" data-tags="heart-ico" d="M942.738 814.373c-50.506 54.894-122.69 89.168-202.879 89.168-0.676 0-1.351-0.002-2.025-0.007l0.104 0.001c-0.344 0.002-0.752 0.003-1.159 0.003-60.588 0-116.29-20.916-160.28-55.922l0.525 0.404c-24.886-19.591-46.334-41.967-64.356-66.976l-0.668-0.974c-18.69 25.982-40.138 48.359-64.323 67.417l-0.701 0.533c-43.456 34.602-99.15 55.518-159.73 55.518-0.417 0-0.833-0.001-1.249-0.003h0.064c-0.571 0.004-1.246 0.007-1.921 0.007-80.189 0-152.373-34.274-202.701-88.973l-0.177-0.195c-50.459-56.333-81.307-131.144-81.307-213.161 0-1.895 0.016-3.787 0.049-5.674l-0.004 0.284c2.545-96.695 40.719-184.010 101.812-249.726l-0.217 0.236c78.115-85.929 161.188-164.041 249.997-235.297l4.247-3.295c35.255-29.989 75.191-64.073 116.59-100.279 10.514-9.228 24.385-14.857 39.57-14.857s29.056 5.63 39.639 14.916l-0.068-0.059c41.472 36.571 81.408 70.29 116.663 100.352 93.061 74.548 176.134 152.66 252.664 236.828l1.58 1.764c60.84 65.468 98.987 152.756 101.512 248.917l0.010 0.5c0.029 1.603 0.045 3.495 0.045 5.39 0 82.016-30.848 156.828-81.575 213.465l0.268-0.304z" />
<glyph unicode="&#xe911;" glyph-name="grouplistimg-ico" data-tags="grouplistimg-ico" d="M0 960h219.429v-219.429h-219.429v219.429zM365.714 960h658.286v-219.429h-658.286v219.429zM0 155.429h219.429v-219.429h-219.429v219.429zM365.714 155.429h658.286v-219.429h-658.286v219.429zM0 557.714h219.429v-219.429h-219.429v219.429zM365.714 557.714h658.286v-219.429h-658.286v219.429z" />
<glyph unicode="&#xe912;" glyph-name="groupblock-ico" data-tags="groupblock-ico" d="M0 960h219.429v-219.429h-219.429v219.429zM402.286 960h219.429v-219.429h-219.429v219.429zM804.571 960h219.429v-219.429h-219.429v219.429zM0 155.429h219.429v-219.429h-219.429v219.429zM402.286 155.429h219.429v-219.429h-219.429v219.429zM804.571 155.429h219.429v-219.429h-219.429v219.429zM0 557.714h219.429v-219.429h-219.429v219.429zM804.571 557.714h219.429v-219.429h-219.429v219.429zM402.286 557.714h219.429v-219.429h-219.429v219.429z" />
<glyph unicode="&#xe913;" glyph-name="graphchart-ico" data-tags="graphchart-ico" d="M35.913 434.761c-0.022 0-0.048 0-0.073 0-19.742 0-35.757-15.963-35.84-35.686v-375.304c0-19.834 16.079-35.913 35.913-35.913v0h235.959c19.722 0.041 35.694 16.039 35.694 35.767 0 0.051 0 0.103 0 0.154v-0.008 375.296c0 19.713-15.981 35.694-35.694 35.694v0zM1024 23.771v592.457c0 19.834-16.079 35.913-35.913 35.913v0h-235.959c-19.834 0-35.913-16.079-35.913-35.913v0-592.457c0-19.834 16.079-35.913 35.913-35.913v0h235.959c0.022 0 0.047 0 0.073 0 19.794 0 35.84 16.046 35.84 35.84 0 0.026 0 0.052 0 0.077v-0.004zM629.979-12.142c19.691 0.083 35.621 16.064 35.621 35.767 0 0.052 0 0.103 0 0.155v-0.008 848.457c0 0.022 0 0.048 0 0.074 0 19.717-15.921 35.715-35.609 35.839h-235.971c-19.708-0.166-35.621-16.181-35.621-35.912 0 0 0-0.001 0-0.001v0-848.457c0-19.834 16.079-35.913 35.913-35.913v0z" />
<glyph unicode="&#xe914;" glyph-name="facebook-ico" data-tags="facebook-ico" horiz-adv-x="472" d="M453.074 448.999h-140.181v-512.999h-211.948v512.999h-100.945v180.559h100.945v116.425c-0.394 4.692-0.618 10.155-0.618 15.671 0 109.885 89.079 198.964 198.964 198.964 5.515 0 10.979-0.224 16.381-0.665l-0.71 0.047 156.946-0.642v-174.995h-114.142c-0.682 0.038-1.479 0.060-2.281 0.060-23.837 0-43.16-19.323-43.16-43.16 0-2.135 0.155-4.234 0.454-6.286l-0.028 0.233v-106.081h158.515z" />
<glyph unicode="&#xe915;" glyph-name="doc-ico" data-tags="doc-ico" d="M89.966-1.975h390.071v360.009h-480.037v-269.97c0.042-49.685 40.287-89.956 89.958-90.039h0.008zM149.943 297.911h240.055c16.562 0 29.989-13.426 29.989-29.989s-13.426-29.989-29.989-29.989v0h-239.982c-16.562 0-29.989 13.426-29.989 29.989s13.426 29.989 29.989 29.989v0zM149.943 177.883h180.078c16.562 0 29.989-13.426 29.989-29.989s-13.426-29.989-29.989-29.989v0h-180.005c-16.562 0-29.989 13.426-29.989 29.989s13.426 29.989 29.989 29.989v0zM540.014 388.023v-389.998h394.021c49.653 0.083 89.883 40.312 89.966 89.958v270.051h-389.998c-16.562 0-29.989 13.426-29.989 29.989s13.426 29.989 29.989 29.989v0h389.998v239.982h-1024v-239.982h510.025c16.562 0 29.989-13.426 29.989-29.989v0zM1024 808.009c-0.083 49.653-40.312 89.883-89.958 89.966h-844.077c-49.653-0.083-89.883-40.312-89.966-89.958v-89.974h1024zM150.016 778.021c-16.562 0-29.989 13.426-29.989 29.989s13.426 29.989 29.989 29.989c16.562 0 29.989-13.426 29.989-29.989v0c0-16.562-13.426-29.989-29.989-29.989v0zM270.043 778.021c-16.562 0-29.989 13.426-29.989 29.989s13.426 29.989 29.989 29.989c16.562 0 29.989-13.426 29.989-29.989v0c0 0 0 0 0 0 0-16.562-13.426-29.989-29.989-29.989-0.026 0-0.051 0-0.077 0h0.004z" />
<glyph unicode="&#xe916;" glyph-name="burger-ico" data-tags="burger-ico" d="M73.143 813.714h877.714c40.396 0 73.143-32.747 73.143-73.143s-32.747-73.143-73.143-73.143h-877.714c-40.396 0-73.143 32.747-73.143 73.143s32.747 73.143 73.143 73.143zM73.143 521.143h877.714c40.396 0 73.143-32.747 73.143-73.143s-32.747-73.143-73.143-73.143h-877.714c-40.396 0-73.143 32.747-73.143 73.143s32.747 73.143 73.143 73.143zM73.143 228.571h877.714c40.396 0 73.143-32.747 73.143-73.143s-32.747-73.143-73.143-73.143h-877.714c-40.396 0-73.143 32.747-73.143 73.143s32.747 73.143 73.143 73.143z" />
<glyph unicode="&#xe917;" glyph-name="boxesup-ico" data-tags="boxesup-ico" d="M0 840.046h340.041v-784.091h-340.041v784.091zM400.091 840.046h340.041v-784.091h-340.041v784.091zM917.943 760.905l-106.057-106.13 42.423-42.423 33.646 33.646v-107.593h59.977v107.593l33.646-33.646 42.423 42.423zM981.577 283.648l-33.646-33.646v107.593h-59.977v-107.593l-33.646 33.646-42.423-42.423 106.057-106.057 106.057 105.984z" />
<glyph unicode="&#xe918;" glyph-name="boxes-ico" data-tags="boxes-ico" d="M992.037-64h-170.715c-17.636 0.042-31.922 14.327-31.963 31.959v53.325h-128v-53.321c-0.041-17.662-14.368-31.965-32.036-31.965-0.103 0-0.206 0-0.308 0.001h-234.041c-17.636 0.042-31.922 14.327-31.963 31.959v53.325h-128.366v-53.321c-0.042-17.636-14.327-31.922-31.959-31.963h-170.646c0 0 0 0 0 0-17.668 0-31.995 14.302-32.036 31.959v138.975h1024v-138.971c-0.042-17.636-14.327-31.922-31.959-31.963h-0.004zM682.642 960h-128v-85.358c0-23.571-19.108-42.679-42.679-42.679s-42.679 19.108-42.679 42.679v0 85.358h-127.927c-23.534-0.042-42.601-19.108-42.642-42.638v-256.004c0.042-23.534 19.108-42.601 42.638-42.642h341.289c23.534 0.042 42.601 19.108 42.642 42.638v256.004c-0.042 23.534-19.108 42.601-42.638 42.642h-0.004zM426.642 533.358h-128v-85.358c0-23.551-19.092-42.642-42.642-42.642s-42.642 19.092-42.642 42.642v0 85.358h-128c-23.534-0.042-42.601-19.108-42.642-42.638v-256.004c0.042-23.534 19.108-42.601 42.638-42.642h341.289c23.534 0.042 42.601 19.108 42.642 42.638v256.004c-0.042 23.534-19.108 42.601-42.638 42.642h-0.004zM938.642 533.358h-128v-85.358c0-23.551-19.092-42.642-42.642-42.642s-42.642 19.092-42.642 42.642v0 85.358h-128c-23.534-0.042-42.601-19.108-42.642-42.638v-256.004c0.042-23.534 19.108-42.601 42.638-42.642h341.362c23.534 0.042 42.601 19.108 42.642 42.638v256.004c-0.042 23.56-19.15 42.642-42.715 42.642 0 0 0 0 0 0v0z" />
<glyph unicode="&#xe919;" glyph-name="bag-ico" data-tags="bag-ico" d="M938.642 746.642h-213.285v42.715c-0.083 47.094-38.258 85.243-85.354 85.285h-256.004c-47.099-0.042-85.274-38.191-85.358-85.277v-42.65h-213.285c-47.125-0.042-85.316-38.233-85.358-85.354v-128.004c0.042-47.125 38.233-85.316 85.354-85.358h341.289v21.358c0 11.796 9.562 21.358 21.358 21.358v0h128c11.796 0 21.358-9.562 21.358-21.358v0-21.358h341.358c47.094 0.083 85.243 38.258 85.285 85.354v128.004c-0.083 47.094-38.258 85.243-85.354 85.285h-0.004zM640 746.642h-256v42.715h256zM1012.151 424.96c-2.764 1.399-6.025 2.218-9.477 2.218-4.872 0-9.362-1.631-12.956-4.377l0.052 0.038c-14.006-10.894-31.827-17.488-51.185-17.554h-341.226v-64c0-11.796-9.562-21.358-21.358-21.358h-128c-11.796 0-21.358 9.562-21.358 21.358v0 64.073h-341.285c-19.373 0.066-37.194 6.661-51.39 17.697l0.19-0.142c-3.522 2.66-7.974 4.261-12.8 4.261-11.776 0-21.326-9.531-21.358-21.3v-299.23c0.042-47.125 38.233-85.316 85.354-85.358h853.289c47.125 0.042 85.316 38.233 85.358 85.354v299.231c-0.014 8.317-4.78 15.518-11.727 19.034l-0.122 0.056z" />
<glyph unicode="&#xe91a;" glyph-name="ar-right" data-tags="ar-right" d="M315.758 960l-119.515-119.442 392.558-392.558-392.558-392.558 119.515-119.442 512 512z" />
<glyph unicode="&#xe91b;" glyph-name="accept-ico" data-tags="accept-ico" d="M901.193 822.93l-504.174-504.174-274.213 274.213-122.807-123.026 397.019-397.019 626.981 627.127z" />
<glyph unicode="&#xe91c;" glyph-name="sertificate-ico" data-tags="sertificate-ico" d="M259.392 236c49.714 0 90.016 40.302 90.016 90.016s-40.302 90.016-90.016 90.016c-49.714 0-90.016-40.302-90.016-90.016 0-0.011 0-0.023 0-0.034v0.002c0.073-49.679 40.335-89.929 90.011-89.984h0.005zM259.392 356c0.009 0 0.021 0 0.032 0 16.577 0 30.016-13.439 30.016-30.016s-13.439-30.016-30.016-30.016c-16.577 0-30.016 13.439-30.016 30.016v0c0.018 16.559 13.428 29.98 29.981 30.016h0.003zM679.392 777.984h-300c-16.15-0.544-29.036-13.767-29.036-30s12.886-29.456 28.986-29.999l0.050-0.001h300c16.15 0.544 29.036 13.767 29.036 30s-12.886 29.456-28.986 29.999l-0.050 0.001zM679.392 656h-300c-16.15-0.544-29.036-13.767-29.036-30s12.886-29.456 28.986-29.999l0.050-0.001h300c16.15 0.544 29.036 13.767 29.036 30s-12.886 29.456-28.986 29.999l-0.050 0.001zM679.392 536h-180c-16.15-0.544-29.036-13.767-29.036-30s12.886-29.456 28.986-29.999l0.050-0.001h180c16.15 0.544 29.036 13.767 29.036 30s-12.886 29.456-28.986 29.999l-0.050 0.001zM679.392 356h-120c-16.15-0.544-29.036-13.767-29.036-30s12.886-29.456 28.986-29.999l0.050-0.001h120c16.15 0.544 29.036 13.767 29.036 30s-12.886 29.456-28.986 29.999l-0.050 0.001zM889.408 960h-540c-66.245-0.073-119.927-53.755-120-119.993v-306.151c-102.362-15.125-180.029-102.369-180.029-207.753 0-57.749 23.323-110.051 61.063-148l-0.009 0.009-85.792-76.512c-6.153-5.52-10.006-13.497-10.006-22.373 0-7.337 2.632-14.059 7.004-19.273l-0.038 0.047 94.816-113.216c5.544-6.592 13.795-10.752 23.019-10.752 10.376 0 19.522 5.265 24.913 13.269l0.068 0.107 95.040 142.56 95.040-142.56c5.459-8.111 14.605-13.376 24.981-13.376 9.223 0 17.475 4.16 22.981 10.706l0.037 0.046 94.816 113.216c4.334 5.168 6.966 11.89 6.966 19.227 0 8.877-3.853 16.853-9.978 22.349l-0.028 0.025-16 14.4h321.12c16.566 0 29.998 13.42 30.016 29.982v390.018h150.016c16.566 0 29.998 13.42 30.016 29.982v274.018c-0.073 66.256-53.773 119.945-120.027 120h-0.005zM259.392 476c82.852 0 150.016-67.164 150.016-150.016s-67.164-150.016-150.016-150.016c-82.852 0-150.016 67.164-150.016 150.016v0c0.091 82.815 67.201 149.925 150.007 150.016h0.009zM136.672 16l-50.272 60.16 73.12 65.216c13.862-7.706 29.916-14.179 46.804-18.59l1.452-0.322zM382.144 16l-70.976 106.464c18.34 4.73 34.394 11.203 49.329 19.456l-1.073-0.544 73.12-65.216zM769.344 176h-358.624l-2.368 2.112c37.733 37.94 61.057 90.243 61.057 147.995 0 105.374-77.653 192.611-178.855 207.61l-1.146 0.14v306.144c0.036 33.122 26.878 59.964 59.997 60h436.163c-10.059-17.112-16-37.693-16-59.662 0-0.119 0-0.238 0.001-0.357v0.018zM949.344 596h-120v244c0 33.137 26.863 60 60 60s60-26.863 60-60v0z" />
<glyph unicode="&#xe91d;" glyph-name="handmoney-ico" data-tags="handmoney-ico" d="M961.792 410.848c-8.877 3.201-19.12 5.051-29.795 5.051-29.471 0-55.649-14.103-72.152-35.928l-0.165-0.227-111.744-146.144c0 0.8 0 1.6 0 2.4-0.073 55.177-44.764 99.891-99.925 100h-198.411c-35.309 30.096-81.465 48.405-131.898 48.405-34.231 0-66.492-8.435-94.818-23.34l1.116 0.535v4.288c-0.018 16.552-13.432 29.966-29.982 29.984h-164.034c-16.519-0.018-29.911-13.377-29.984-29.881v-400.007c0.018-16.552 13.432-29.966 29.982-29.984h164.002c16.566 0 29.998 13.42 30.016 29.982v29.986h491.712c0.134 0 0.293 0 0.451 0 73.663 0 138.432 38.081 175.693 95.631l0.496 0.817 117.088 182.112c9.13 13.983 14.56 31.103 14.56 49.491 0 0.027 0 0.054 0 0.081v-0.004c0.003 0.255 0.004 0.557 0.004 0.859 0 39.848-25.782 73.674-61.574 85.707l-0.638 0.186zM164-4h-104v340h104zM958.976 307.008l-117.088-182.208c-26.965-41.693-73.227-68.896-125.842-68.896-0.117 0-0.235 0-0.352 0h-491.694v234.656l10.048 7.168c23.2 16.729 52.2 26.755 83.543 26.755 38.696 0 73.823-15.284 99.672-40.144l-0.047 0.045c5.383-5.188 12.716-8.384 20.796-8.384 0.001 0 0.003 0 0.004 0h209.984c22.091 0 40-17.909 40-40s-17.909-40-40-40v0h-214.016c-0.292 0.010-0.635 0.016-0.98 0.016-16.577 0-30.016-13.439-30.016-30.016s13.439-30.016 30.016-30.016c0.345 0 0.688 0.006 1.030 0.017l-0.050-0.001h240.704c48.373 0.149 91.37 23.039 118.879 58.535l0.257 0.345 113.472 148.384c5.83 7.568 14.895 12.397 25.088 12.397 17.443 0 31.584-14.141 31.584-31.584 0-0.005 0-0.009 0-0.014v0.001c0-0.007 0-0.016 0-0.025 0-6.34-1.874-12.243-5.098-17.184l0.074 0.121zM524.096 600.576c13.534-9.949 30.123-16.515 48.136-18.149l0.376-0.027v-12.416c0-11.046 8.954-20 20-20s20 8.954 20 20v0 14.336c30.64 8.282 53.795 33.246 59.32 64.309l0.072 0.491c0.733 3.847 1.153 8.272 1.153 12.795 0 31.761-20.685 58.691-49.319 68.054l-0.506 0.143c-3.488 1.216-7.040 2.496-10.592 3.84v64.608c3.725-1.329 6.923-3.301 9.617-5.808l-0.017 0.016c3.677-4.090 8.986-6.651 14.893-6.651 11.046 0 20 8.954 20 20 0 4.999-1.834 9.57-4.866 13.076l0.021-0.025c-10.323 10.723-24.024 18.127-39.388 20.495l-0.388 0.049v10.24c0 11.046-8.954 20-20 20s-20-8.954-20-20v0-12.448l-3.744-1.056c-23.918-7.672-41.757-27.707-46.148-52.393l-0.060-0.407c-0.938-3.969-1.476-8.526-1.476-13.208 0-18.304 8.218-34.688 21.165-45.664l0.087-0.072c8.725-6.666 18.638-12.565 29.204-17.259l0.94-0.373v-84.448c-10.165 1.71-19.172 5.729-26.774 11.501l0.15-0.109c-3.151 2.17-7.050 3.465-11.252 3.465-11.046 0-20-8.954-20-20 0-7.103 3.702-13.34 9.282-16.889l0.081-0.048zM612.608 691.2c12.029-4.425 20.454-15.785 20.454-29.112 0-2.281-0.247-4.505-0.715-6.645l0.038 0.205c-2.114-12.334-9.442-22.627-19.588-28.696l-0.188-0.104zM567.136 756.224c-3.658 3.731-5.916 8.847-5.916 14.491 0 1.984 0.279 3.903 0.8 5.719l-0.036-0.146c1.343 7.286 5.177 13.504 10.569 17.876l0.055 0.044v-41.856c-1.984 1.248-3.808 2.56-5.472 3.84zM594.016 460c138.080 0 250.016 111.936 250.016 250.016s-111.936 250.016-250.016 250.016c-138.080 0-250.016-111.936-250.016-250.016 0-0.011 0-0.022 0-0.034v0.002c0.164-138.008 112.006-249.838 250.002-249.984h0.014zM594.016 900c0.010 0 0.021 0 0.032 0 104.943 0 190.016-85.073 190.016-190.016s-85.073-190.016-190.016-190.016c-104.943 0-190.016 85.073-190.016 190.016v0c0.109 104.888 85.099 189.889 189.972 190.016h0.012z" />
<glyph unicode="&#xe91e;" glyph-name="cup-ico" data-tags="cup-ico" d="M616.32 752l-53.376 8.032-24.128 48.256c-5.028 9.921-15.15 16.602-26.832 16.602s-21.804-6.681-26.753-16.431l-0.079-0.171-24.128-48.256-53.344-8.032c-14.593-2.206-25.65-14.66-25.65-29.697 0-8.428 3.474-16.045 9.068-21.497l0.006-0.006 38.4-37.856-8.832-53.248c-0.263-1.491-0.413-3.208-0.413-4.96 0-16.56 13.424-29.984 29.984-29.984 5.063 0 9.833 1.255 14.016 3.471l-0.163-0.079 48 24.864 48-24.864c4.020-2.137 8.79-3.392 13.853-3.392 16.56 0 29.984 13.424 29.984 29.984 0 1.752-0.15 3.469-0.439 5.138l0.025-0.178-8.832 53.248 38.4 37.856c5.585 5.456 9.049 13.063 9.049 21.479 0 15.096-11.145 27.59-25.655 29.702l-0.162 0.019zM541.28 695.008c-5.514-6.372-8.873-14.741-8.873-23.894 0-4.267 0.73-8.363 2.072-12.17l-0.079 0.256-8.48 4.384c-4.013 2.125-8.773 3.373-13.824 3.373s-9.811-1.248-13.988-3.452l0.164 0.079-8.672-4.384c1.137 3.83 1.791 8.23 1.791 12.783 0 3.844-0.466 7.579-1.345 11.152l0.066-0.319c-3.196 7.567-8.067 13.886-14.174 18.709l-0.098 0.075 9.6 1.44c19.744 3.2 23.808 21.024 26.464 24.768l4.256-8.544c6.526-10.661 18.109-17.667 31.327-17.667 0.169 0 0.338 0.001 0.506 0.003h-0.026zM994.016 900h-152.416q0.352 14.88 0.384 29.984c0 16.566-13.42 29.998-29.982 30.016h-600.002c-16.564-0.018-29.984-13.45-29.984-30.016v0q0-15.136 0.384-30.016h-152.384c-16.566 0-29.998-13.42-30.016-29.982v-75.97c0.733-168.231 133.107-305.309 299.387-313.571l0.741-0.029c30.686-43.748 71.658-78.314 119.501-100.605l1.843-0.771c-4.033-69.879-23.805-134.342-55.794-190.992l1.138 2.192c-16.32-30.005-34.918-55.898-56.294-79.201l0.262 0.289c-5.413-5.441-8.769-12.934-8.8-21.21v-94.022h-29.984c-16.595 0-30.048-13.453-30.048-30.048s13.453-30.048 30.048-30.048v0h480c16.15 0.544 29.036 13.767 29.036 30s-12.886 29.456-28.986 29.999l-0.050 0.001h-29.984v93.984c-0.038 8.281-3.392 15.771-8.802 21.218l0.002-0.002c-63.772 71.34-104.714 164.286-110.665 266.623l-0.055 1.185c49.7 23.056 90.682 57.623 120.74 100.421l0.636 0.955c167.032 8.292 299.412 145.387 300.128 313.561v76.039c-0.018 16.552-13.432 29.966-29.982 29.984h-0.002zM60 794.016v45.984h125.408c6.354-107.882 33.251-208.035 76.819-298.658l-2.067 4.77c-114.974 25.934-199.642 126.958-200.16 247.847v0.057zM362.016-4v64h300v-64zM562.848 428.16c-12.201-3.993-20.859-15.273-20.864-28.575v-0.001c0.604-104.596 33.377-201.419 88.913-281.213l-1.073 1.629h-235.648c54.463 78.165 87.236 174.988 87.839 279.434l0.001 0.15c-0.005 13.303-8.663 24.583-20.652 28.516l-0.212 0.060c-71.136 22.784-121.184 88.896-153.312 156.96-41.233 92.776-65.301 201-65.44 314.829v0.051h539.232c-0.143-113.87-24.211-222.082-67.444-319.93l2.004 5.082c-31.84-67.392-81.76-134.048-153.312-156.96zM964 794.016c-0.518-120.946-85.186-221.97-198.454-247.58l-1.706-0.324c41.502 85.853 68.4 186.006 74.649 291.714l0.103 2.174h125.408z" />
<glyph unicode="&#xe91f;" glyph-name="location-ico" data-tags="location-ico" d="M512 960c-211.977-0.25-383.751-172.023-384-383.977v-0.023c0-283.282 354.304-620.032 369.371-634.222 3.812-3.59 8.963-5.796 14.629-5.796s10.816 2.206 14.639 5.806l-0.011-0.010c15.067 14.19 369.371 351.086 369.371 634.222-0.25 211.977-172.023 383.751-383.977 384h-0.023zM512 362.642c-117.834 0-213.358 95.524-213.358 213.358s95.524 213.358 213.358 213.358c117.834 0 213.358-95.524 213.358-213.358v0c-0.125-117.784-95.574-213.233-213.345-213.358h-0.012z" />
<glyph unicode="&#xe920;" glyph-name="grouplist-ico" data-tags="grouplist-ico" d="M0 960h1024v-219.429h-1024v219.429zM0 155.429h1024v-219.429h-1024v219.429zM0 557.714h1024v-219.429h-1024v219.429z" />
</font>
</defs>
</svg>
